<svg xmlns="http://www.w3.org/2000/svg" xmlns:xlink="http://www.w3.org/1999/xlink" width="365" zoomAndPan="magnify" viewBox="0 0 273.75 270.749989" height="361" preserveAspectRatio="xMidYMid meet" version="1.0"><defs><g/><clipPath id="0ce36e8c77"><path d="M 51.59375 101 L 221.6875 101 L 221.6875 127 L 51.59375 127 Z M 51.59375 101 " clip-rule="nonzero"/></clipPath><clipPath id="7c6d558b6a"><path d="M 51.59375 108 L 221.6875 108 L 221.6875 158.425781 L 51.59375 158.425781 Z M 51.59375 108 " clip-rule="nonzero"/></clipPath><clipPath id="53ad9043b9"><path d="M 51.59375 54 L 221.6875 54 L 221.6875 80 L 51.59375 80 Z M 51.59375 54 " clip-rule="nonzero"/></clipPath><clipPath id="77468ff8ed"><path d="M 51.59375 14 L 221.6875 14 L 221.6875 65 L 51.59375 65 Z M 51.59375 14 " clip-rule="nonzero"/></clipPath><clipPath id="e8c2031fec"><path d="M 51.59375 61 L 221.6875 61 L 221.6875 112 L 51.59375 112 Z M 51.59375 61 " clip-rule="nonzero"/></clipPath><clipPath id="01437b54ae"><path d="M 51.59375 0.320312 L 221.6875 0.320312 L 221.6875 33 L 51.59375 33 Z M 51.59375 0.320312 " clip-rule="nonzero"/></clipPath></defs><g clip-path="url(#0ce36e8c77)"><path fill="#ffffff" d="M 59.414062 101.308594 C 54.464844 103.539062 51.6875 106.015625 51.6875 108.628906 C 51.6875 118.328125 89.695312 126.191406 136.578125 126.191406 C 183.460938 126.191406 221.464844 118.328125 221.464844 108.628906 C 221.464844 106.015625 218.691406 103.539062 213.742188 101.308594 C 200.328125 107.355469 170.832031 111.554688 136.578125 111.554688 C 102.324219 111.554688 72.828125 107.355469 59.414062 101.308594 Z M 59.414062 101.308594 " fill-opacity="1" fill-rule="nonzero"/></g><g clip-path="url(#7c6d558b6a)"><path fill="#f4971a" d="M 136.578125 126.191406 C 89.695312 126.191406 51.6875 118.328125 51.6875 108.628906 L 51.6875 140.828125 C 51.6875 150.527344 89.695312 158.390625 136.578125 158.390625 C 183.460938 158.390625 221.464844 150.527344 221.464844 140.828125 L 221.464844 108.628906 C 221.464844 118.328125 183.460938 126.191406 136.578125 126.191406 Z M 136.578125 126.191406 " fill-opacity="1" fill-rule="nonzero"/></g><g clip-path="url(#53ad9043b9)"><path fill="#ffffff" d="M 59.414062 54.472656 C 54.464844 56.703125 51.6875 59.179688 51.6875 61.792969 C 51.6875 71.492188 89.695312 79.355469 136.578125 79.355469 C 183.460938 79.355469 221.464844 71.492188 221.464844 61.792969 C 221.464844 59.179688 218.691406 56.703125 213.742188 54.472656 C 200.328125 60.519531 170.832031 64.71875 136.578125 64.71875 C 102.324219 64.71875 72.828125 60.519531 59.414062 54.472656 Z M 59.414062 54.472656 " fill-opacity="1" fill-rule="nonzero"/></g><g clip-path="url(#77468ff8ed)"><path fill="#f4971a" d="M 136.578125 32.519531 C 89.695312 32.519531 51.6875 24.65625 51.6875 14.957031 L 51.6875 47.15625 C 51.6875 49.769531 54.46875 52.246094 59.414062 54.472656 C 72.828125 60.519531 102.324219 64.71875 136.578125 64.71875 C 170.832031 64.71875 200.328125 60.519531 213.742188 54.472656 C 218.6875 52.246094 221.464844 49.769531 221.464844 47.15625 L 221.464844 14.957031 C 221.464844 24.65625 183.460938 32.519531 136.578125 32.519531 Z M 136.578125 32.519531 " fill-opacity="1" fill-rule="nonzero"/></g><g clip-path="url(#e8c2031fec)"><path fill="#f4971a" d="M 136.578125 79.355469 C 89.695312 79.355469 51.6875 71.492188 51.6875 61.792969 L 51.6875 93.992188 C 51.6875 96.605469 54.46875 99.082031 59.414062 101.308594 C 72.828125 107.355469 102.324219 111.554688 136.578125 111.554688 C 170.832031 111.554688 200.328125 107.355469 213.742188 101.308594 C 218.6875 99.082031 221.464844 96.605469 221.464844 93.992188 L 221.464844 61.792969 C 221.464844 71.492188 183.460938 79.355469 136.578125 79.355469 Z M 136.578125 79.355469 " fill-opacity="1" fill-rule="nonzero"/></g><g clip-path="url(#01437b54ae)"><path fill="#ffffff" d="M 136.578125 0.320312 C 89.695312 0.320312 51.6875 5.257812 51.6875 14.957031 C 51.6875 24.65625 89.695312 32.519531 136.578125 32.519531 C 183.460938 32.519531 221.464844 24.65625 221.464844 14.957031 C 221.464844 5.257812 183.460938 0.320312 136.578125 0.320312 Z M 136.578125 0.320312 " fill-opacity="1" fill-rule="nonzero"/></g><path fill="#f4971a" d="M 145.359375 50.082031 L 127.796875 50.082031 C 126.179688 50.082031 124.867188 48.773438 124.867188 47.15625 C 124.867188 45.539062 126.179688 44.230469 127.796875 44.230469 L 145.359375 44.230469 C 146.976562 44.230469 148.285156 45.539062 148.285156 47.15625 C 148.285156 48.773438 146.976562 50.082031 145.359375 50.082031 Z M 145.359375 50.082031 " fill-opacity="1" fill-rule="nonzero"/><path fill="#f4971a" d="M 145.359375 96.917969 L 127.796875 96.917969 C 126.179688 96.917969 124.867188 95.609375 124.867188 93.992188 C 124.867188 92.375 126.179688 91.066406 127.796875 91.066406 L 145.359375 91.066406 C 146.976562 91.066406 148.285156 92.375 148.285156 93.992188 C 148.285156 95.609375 146.976562 96.917969 145.359375 96.917969 Z M 145.359375 96.917969 " fill-opacity="1" fill-rule="nonzero"/><path fill="#f4971a" d="M 145.359375 143.753906 L 127.796875 143.753906 C 126.179688 143.753906 124.867188 142.441406 124.867188 140.828125 C 124.867188 139.210938 126.179688 137.898438 127.796875 137.898438 L 145.359375 137.898438 C 146.976562 137.898438 148.285156 139.210938 148.285156 140.828125 C 148.285156 142.441406 146.976562 143.753906 145.359375 143.753906 Z M 145.359375 143.753906 " fill-opacity="1" fill-rule="nonzero"/><g fill="#ffffff" fill-opacity="1"><g transform="translate(30.40321, 232.826229)"><g><path d="M 4 -28.296875 C 4 -36.492188 6.738281 -43.390625 12.21875 -48.984375 C 17.707031 -54.585938 24.554688 -57.390625 32.765625 -57.390625 C 41.023438 -57.390625 47.875 -55.097656 53.3125 -50.515625 L 49.3125 -44.671875 C 47.394531 -46.273438 44.957031 -47.59375 42 -48.625 C 39.039062 -49.664062 36.148438 -50.1875 33.328125 -50.1875 C 26.929688 -50.1875 21.800781 -48.109375 17.9375 -43.953125 C 14.070312 -39.796875 12.140625 -34.628906 12.140625 -28.453125 C 12.140625 -22.003906 14.113281 -16.703125 18.0625 -12.546875 C 22.007812 -8.390625 26.9375 -6.3125 32.84375 -6.3125 C 38.96875 -6.3125 44.296875 -8.65625 48.828125 -13.34375 L 48.828125 -21.5 L 39.71875 -21.5 L 39.71875 -28.375 L 56.109375 -28.375 L 56.109375 0 L 49.15625 0 L 49.15625 -3.515625 L 49.234375 -5.921875 L 49.078125 -5.921875 C 47.097656 -3.835938 44.5625 -2.171875 41.46875 -0.921875 C 38.382812 0.328125 35.140625 0.953125 31.734375 0.953125 C 24.003906 0.953125 17.445312 -1.800781 12.0625 -7.3125 C 6.6875 -12.820312 4 -19.816406 4 -28.296875 Z M 4 -28.296875 "/></g></g></g><g fill="#ffffff" fill-opacity="1"><g transform="translate(113.680461, 232.826229)"><g><path d="M 7.4375 0 L 7.4375 -56.421875 L 26.21875 -56.421875 C 34.894531 -56.421875 41.816406 -53.929688 46.984375 -48.953125 C 52.160156 -43.972656 54.75 -37.085938 54.75 -28.296875 C 54.75 -19.453125 52.160156 -12.523438 46.984375 -7.515625 C 41.816406 -2.503906 34.894531 0 26.21875 0 Z M 15.34375 -6.875 L 25.65625 -6.875 C 32.101562 -6.875 37.203125 -8.722656 40.953125 -12.421875 C 44.710938 -16.128906 46.59375 -21.421875 46.59375 -28.296875 C 46.59375 -35.054688 44.703125 -40.285156 40.921875 -43.984375 C 37.140625 -47.691406 32.050781 -49.546875 25.65625 -49.546875 L 15.34375 -49.546875 Z M 15.34375 -6.875 "/></g></g></g><g fill="#ffffff" fill-opacity="1"><g transform="translate(194.959747, 232.826229)"><g><path d="M 1.28125 0 L 19.015625 -29.09375 L 2.390625 -56.421875 L 11.421875 -56.421875 L 20.296875 -41.15625 L 23.890625 -34.453125 L 24.0625 -34.453125 C 25.125 -36.847656 26.269531 -39.082031 27.5 -41.15625 L 36.4375 -56.421875 L 45.5625 -56.421875 L 28.765625 -29.09375 L 46.59375 0 L 37.71875 0 L 27.40625 -17.34375 L 23.890625 -23.8125 L 23.734375 -23.8125 C 22.617188 -21.570312 21.472656 -19.414062 20.296875 -17.34375 L 10.0625 0 Z M 1.28125 0 "/></g></g></g></svg>